# Blender v2.79 (sub 0) OBJ File: ''
# www.blender.org
mtllib house.mtl
o Cube.002
v 0.914699 1.670621 -1.472432
v 0.919966 1.643426 1.278905
v -1.080034 1.643426 1.278904
v -1.085302 1.670621 -1.472433
v 0.872366 2.780727 -0.134438
v -0.085302 1.670621 -1.472432
v -1.127634 2.780727 -0.134439
v -0.080034 1.643426 1.278905
v -0.127634 2.780727 -0.134438
v 0.915343 1.954830 -1.112642
v 0.918259 1.957441 0.885305
v -1.085477 1.957309 0.886254
v -1.088371 1.955971 -1.110111
v 0.893855 2.367779 -0.623540
v 0.895313 2.369084 0.375434
v 0.916801 1.956136 -0.113668
v 0.919112 1.800433 1.082105
v -0.580034 1.643426 1.278904
v -1.106555 2.369018 0.375908
v 0.419966 1.643426 1.278905
v -0.627634 2.780727 -0.134439
v 0.372366 2.780727 -0.134438
v 0.906786 2.163262 0.630370
v -1.082756 1.800368 1.082579
v -0.606556 2.369018 0.375908
v -0.582756 1.800368 1.082579
v 0.419113 1.800433 1.082105
v 0.395313 2.369084 0.375434
v -0.103834 2.212077 0.572233
v 0.883839 2.574905 0.120498
v 0.639576 2.471994 0.247966
v -0.585302 1.670621 -1.472433
v -1.086836 1.813296 -1.291272
v 0.883110 2.574253 -0.378989
v 0.414699 1.670621 -1.472432
v -0.877634 2.780727 -0.134439
v 0.122366 2.780727 -0.134438
v 0.915021 1.812726 -1.292537
v -1.108002 2.368349 -0.622275
v 0.415021 1.812726 -1.292537
v -0.586836 1.813296 -1.291272
v -0.608002 2.368349 -0.622275
v -0.106468 2.225674 -0.803435
v 0.393855 2.367779 -0.623540
v 0.904599 2.161304 -0.868091
v -0.377634 2.780727 -0.134438
v 0.622366 2.780727 -0.134438
v -0.742818 2.574538 -0.378357
vn 0.0000 0.7641 -0.6451
vn 0.0021 0.7791 0.6269
vn 0.9986 0.0538 -0.0015
vn -0.9988 -0.0493 0.0015
vn 0.0000 0.7847 -0.6199
vn 0.0000 0.7856 -0.6187
vn 0.0000 0.7637 -0.6456
vn -0.0118 0.7694 -0.6387
vn 0.0109 0.7697 -0.6383
vn -0.0000 0.7783 0.6279
vn -0.0000 0.7811 0.6244
vn -0.0000 0.7817 0.6236
vn -0.0000 0.7781 0.6282
vn -0.0016 0.7791 0.6270
usemtl Material
s off
f 5//1 34//1 14//1 45//1 10//1 44//1 9//1 37//1 22//1 47//1
f 9//2 29//2 28//2
f 5//3 30//3 15//3 14//3 34//3
f 7//4 39//4 13//4 12//4 19//4
f 1//5 35//5 38//5
f 6//6 32//6 41//6
f 48//7 36//7 21//7 46//7
f 6//8 41//8 43//8
f 10//9 40//9 44//9
f 9//10 46//10 21//10 25//10
f 12//11 24//11 26//11
f 8//12 20//12 27//12
f 31//13 30//13 5//13 47//13 22//13
f 9//14 25//14 29//14
f 14//3 16//3 10//3 45//3
f 14//3 15//3 16//3
f 15//3 23//3 11//3 16//3
f 29//14 26//14 8//14
f 29//14 25//14 26//14
f 25//14 12//14 26//14
f 28//13 31//13 22//13 37//13 9//13
f 11//13 23//13 31//13 28//13
f 23//13 15//13 30//13 31//13
f 27//12 17//12 11//12
f 27//12 20//12 17//12
f 20//12 2//12 17//12
f 26//11 18//11 8//11
f 26//11 24//11 18//11
f 24//11 3//11 18//11
f 25//10 19//10 12//10
f 25//10 21//10 19//10
f 21//10 36//10 7//10 19//10
f 28//2 27//2 11//2
f 28//2 29//2 27//2
f 29//2 8//2 27//2
f 44//9 43//9 9//9
f 44//9 40//9 43//9
f 40//9 6//9 43//9
f 43//8 42//8 9//8
f 43//8 41//8 42//8
f 41//8 13//8 42//8
f 42//7 48//7 46//7 9//7
f 13//7 39//7 48//7 42//7
f 39//7 7//7 36//7 48//7
f 41//6 33//6 13//6
f 41//6 32//6 33//6
f 32//6 4//6 33//6
f 38//5 40//5 10//5
f 38//5 35//5 40//5
f 35//5 6//5 40//5
o Cube.001
v 0.913195 -0.044201 -1.113044
v 0.913195 -0.044201 0.886956
v -1.086805 -0.044201 0.886956
v -1.086805 -0.044201 -1.113044
v 0.913195 -0.044201 -0.363044
v 0.663195 -0.044201 0.136956
v 0.913195 -0.044201 0.136956
v 0.663195 -0.044201 -0.363044
vn 0.0000 -1.0000 0.0000
usemtl Material
s off
f 51//15 52//15 56//15
f 56//15 54//15 51//15
f 52//15 49//15 56//15
f 54//15 55//15 50//15
f 49//15 53//15 56//15
f 54//15 50//15 51//15
o Cube
v 0.913195 -0.044201 -1.113044
v 0.913195 -0.044201 0.886956
v -1.086805 -0.044201 0.886956
v -1.086805 -0.044201 -1.113044
v 0.913195 1.955799 -1.113043
v 0.913194 1.955799 0.886957
v -1.086806 1.955799 0.886956
v -1.086805 1.955799 -1.113044
v 0.913195 -0.044201 -0.113044
v -0.086805 -0.044201 -1.113044
v 0.913195 0.955799 -1.113044
v -0.086805 -0.044201 0.886956
v 0.913194 0.955799 0.886956
v -1.086805 -0.044201 -0.113044
v -1.086805 0.955799 0.886956
v -1.086805 0.955799 -1.113044
v 0.913195 1.955799 -0.113043
v -0.086805 1.955799 -1.113044
v -0.086806 1.955799 0.886956
v -1.086805 1.955799 -0.113044
v 0.913195 0.955799 -0.113044
v -1.086805 0.955799 -0.113044
v 0.913195 -0.044201 0.386956
v -0.586805 -0.044201 -1.113044
v 0.913195 1.455799 -1.113044
v -0.586805 -0.044201 0.886956
v 0.913194 1.455799 0.886956
v -1.086805 -0.044201 -0.613044
v -1.086805 1.455799 0.886956
v -1.086805 1.455799 -1.113044
v 0.913194 1.955799 0.386957
v -0.586805 1.955799 -1.113044
v -0.586806 1.955799 0.886956
v -1.086805 1.955799 -0.613044
v 0.413195 1.455799 -1.113044
v -0.586806 0.455799 0.886956
v 0.913195 0.455799 0.386956
v -1.086805 1.455799 -0.613044
v 0.913195 -0.044201 -0.613044
v 0.413195 -0.044201 -1.113044
v 0.913195 0.455799 -1.113044
v 0.413195 -0.044201 0.886956
v 0.913195 0.455799 0.886956
v -1.086805 -0.044201 0.386956
v -1.086805 0.455799 0.886956
v -1.086805 0.455799 -1.113044
v 0.913195 1.955799 -0.613043
v 0.413195 1.955799 -1.113044
v 0.413194 1.955799 0.886956
v -1.086805 1.955799 0.386956
v -0.586805 0.455799 -1.113044
v 0.413194 1.455799 0.886956
v 0.913195 1.455799 -0.613044
v -1.086805 0.455799 0.386956
v -1.086805 0.455799 -0.113044
v -1.086805 0.455799 -0.613044
v 0.913195 0.955799 -0.613044
v 0.913195 0.455799 -0.613044
v 0.413194 0.955799 0.886956
v -0.086805 0.455799 0.886956
v 0.413195 0.455799 0.886956
v -0.086805 0.455799 -1.113044
v 0.413195 0.955799 -1.113044
v 0.413195 0.455799 -1.113044
v -1.086805 1.455799 0.386956
v -1.086805 1.455799 -0.113044
v 0.913194 1.455799 0.386956
v 0.913195 0.955799 0.386956
v 0.913195 1.455799 -0.113044
v -0.586806 1.455799 0.886956
v -0.586806 0.955799 0.886956
v -0.086806 1.455799 0.886956
v -0.586805 1.455799 -1.113044
v -0.086805 1.455799 -1.113044
v -0.586805 0.955799 -1.113044
v 0.913195 -0.044201 0.636956
v -0.836805 -0.044201 -1.113044
v 0.913195 1.705799 -1.113044
v -0.836805 -0.044201 0.886956
v 0.913194 1.705799 0.886956
v -1.086805 -0.044201 -0.863044
v -1.086805 1.705799 0.886956
v -1.086805 1.705799 -1.113044
v 0.913194 1.955799 0.636957
v -0.836805 1.955799 -1.113044
v -0.836806 1.955799 0.886956
v -1.086805 1.955799 -0.863044
v 0.663195 1.705799 -1.113044
v -0.836805 0.205799 0.886956
v 0.913195 0.205799 0.636956
v -1.086805 1.705799 -0.863044
v 0.913195 -0.044201 -0.363044
v 0.163195 -0.044201 -1.113044
v 0.913195 0.705799 -1.113044
v 0.163195 -0.044201 0.886956
v 0.913194 0.705799 0.886956
v -1.086805 -0.044201 0.136956
v -1.086805 0.705799 0.886956
v -1.086805 0.705799 -1.113044
v 0.913195 1.955799 -0.363043
v 0.163195 1.955799 -1.113044
v 0.163194 1.955799 0.886956
v -1.086805 1.955799 0.136956
v -0.336805 0.705799 -1.113044
v 0.163194 1.205799 0.886956
v 0.913195 1.205799 -0.363044
v -1.086805 0.705799 0.136956
v 0.663195 -0.044201 -0.113044
v 0.663195 -0.044201 0.136956
v -1.086805 0.205799 -0.113044
v -1.086805 0.955799 -0.863044
v -1.086805 0.705799 -0.863044
v 0.913195 0.955799 -0.863044
v 0.913195 0.205799 -0.363044
v 0.663194 0.955799 0.886956
v -0.086805 0.205799 0.886956
v 0.163195 0.205799 0.886956
v -0.086805 0.205799 -1.113044
v 0.663195 0.955799 -1.113044
v 0.663195 0.705799 -1.113044
v -1.086805 1.205799 0.636956
v -1.086805 1.205799 -0.113044
v -1.086805 0.955799 0.136956
v 0.913195 1.705799 0.136956
v 0.913195 0.955799 0.136956
v 0.913195 1.205799 -0.113044
v -0.336806 1.705799 0.886956
v -0.336806 0.955799 0.886956
v -0.086806 1.205799 0.886956
v -0.836805 1.205799 -1.113044
v -0.086805 1.205799 -1.113044
v -0.336805 0.955799 -1.113044
v 0.913195 -0.044201 0.136956
v -0.336805 -0.044201 -1.113044
v 0.913195 1.205799 -1.113044
v -0.336805 -0.044201 0.886956
v 0.913194 1.205799 0.886956
v -1.086805 -0.044201 -0.363044
v -1.086805 1.205799 0.886956
v -1.086805 1.205799 -1.113044
v 0.913194 1.955799 0.136957
v -0.336805 1.955799 -1.113044
v -0.336806 1.955799 0.886956
v -1.086805 1.955799 -0.363044
v 0.163195 1.205799 -1.113044
v -0.336806 0.705799 0.886956
v 0.913195 0.705799 0.136956
v -1.086805 1.205799 -0.363044
v 0.913195 -0.044201 -0.863044
v 0.663195 -0.044201 -1.113044
v 0.913195 0.205799 -1.113044
v 0.663195 -0.044201 0.886956
v 0.913195 0.205799 0.886956
v -1.086805 -0.044201 0.636956
v -1.086805 0.205799 0.886956
v -1.086805 0.205799 -1.113044
v 0.913195 1.955799 -0.863043
v 0.663195 1.955799 -1.113044
v 0.663194 1.955799 0.886956
v -1.086805 1.955799 0.636956
v -0.836805 0.205799 -1.113044
v 0.663194 1.705799 0.886956
v 0.913195 1.705799 -0.863044
v -1.086805 0.205799 0.636956
v -1.086805 0.705799 -0.113044
v -1.086805 0.955799 -0.363044
v -1.086805 0.205799 -0.363044
v 0.913195 0.955799 -0.363044
v 0.913195 0.705799 -0.113044
v 0.913195 0.705799 -0.863044
v 0.163194 0.955799 0.886956
v -0.086806 0.705799 0.886956
v 0.663194 0.705799 0.886956
v -0.086805 0.705799 -1.113044
v 0.163195 0.955799 -1.113044
v 0.163195 0.205799 -1.113044
v -1.086805 1.705799 0.136956
v -1.086805 1.705799 -0.113044
v -1.086805 0.955799 0.636956
v 0.913194 1.205799 0.636956
v 0.913194 0.955799 0.636956
v 0.913195 1.705799 -0.113044
v -0.836806 1.205799 0.886956
v -0.836806 0.955799 0.886956
v -0.086806 1.705799 0.886956
v -0.336805 1.705799 -1.113044
v -0.086805 1.705799 -1.113044
v -0.836805 0.955799 -1.113044
v -0.836805 0.705799 -1.113044
v -0.586805 0.705799 -1.113044
v -0.836805 0.455799 -1.113044
v -0.586805 1.205799 -1.113044
v -0.336805 1.455799 -1.113044
v -0.336805 1.205799 -1.113044
v -0.836805 1.705799 -1.113044
v -0.586805 1.705799 -1.113044
v -0.836805 1.455799 -1.113044
v 0.163194 1.705799 0.886956
v 0.163194 1.455799 0.886956
v 0.413194 1.705799 0.886956
v -0.336806 1.455799 0.886956
v -0.586806 1.205799 0.886956
v -0.336806 1.205799 0.886956
v -0.836806 1.705799 0.886956
v -0.836806 1.455799 0.886956
v -0.586806 1.705799 0.886956
v 0.913195 1.705799 -0.363044
v 0.913195 1.455799 -0.363044
v 0.913195 1.705799 -0.613044
v 0.913195 1.455799 0.136956
v 0.913195 1.205799 0.136956
v 0.913194 1.705799 0.636956
v 0.913194 1.455799 0.636956
v 0.913194 1.705799 0.386956
v -1.086805 0.705799 0.636956
v -1.086805 0.705799 0.386956
v -1.086805 0.455799 0.636956
v -1.086805 1.205799 0.386956
v -1.086805 1.455799 0.136956
v -1.086805 1.205799 0.136956
v -1.086805 1.705799 0.636956
v -1.086805 1.705799 0.386956
v -1.086805 1.455799 0.636956
v 0.413195 0.205799 -1.113044
v 0.663195 0.455799 -1.113044
v 0.663195 0.205799 -1.113044
v 0.163195 0.455799 -1.113044
v 0.163195 0.705799 -1.113044
v 0.413195 0.705799 -1.113044
v -0.586805 0.205799 -1.113044
v -0.336805 0.455799 -1.113044
v -0.336805 0.205799 -1.113044
v 0.663195 0.455799 0.886956
v 0.413195 0.205799 0.886956
v 0.663195 0.205799 0.886956
v 0.413194 0.705799 0.886956
v 0.163194 0.705799 0.886956
v 0.163195 0.455799 0.886956
v 0.663194 1.455799 0.886956
v 0.413194 1.205799 0.886956
v 0.663194 1.205799 0.886956
v 0.913195 0.455799 -0.863044
v 0.913195 0.205799 -0.613044
v 0.913195 0.205799 -0.863044
v 0.913195 0.705799 -0.613044
v 0.913195 0.705799 -0.363044
v 0.913195 0.455799 -0.363044
v 0.913195 1.455799 -0.863044
v 0.913195 1.205799 -0.863044
v -1.086805 0.205799 -0.613044
v -1.086805 0.455799 -0.863044
v -1.086805 0.205799 -0.863044
v -1.086805 0.455799 -0.363044
v -1.086805 0.705799 -0.363044
v -1.086805 0.705799 -0.613044
v -1.086805 0.205799 0.386956
v -1.086805 0.455799 0.136956
v -1.086805 0.205799 0.136956
v 0.663195 -0.044201 -0.363044
v -1.086805 1.205799 -0.613044
v -1.086805 1.455799 -0.863044
v -1.086805 1.205799 -0.863044
v 0.913195 0.455799 0.136956
v 0.913195 0.205799 0.386956
v 0.913195 0.205799 0.136956
v -0.336806 0.455799 0.886956
v -0.586805 0.205799 0.886956
v -0.336805 0.205799 0.886956
v 0.413195 1.205799 -1.113044
v 0.663195 1.455799 -1.113044
v 0.663195 1.205799 -1.113044
v -1.086805 1.705799 -0.363044
v -1.086805 1.705799 -0.613044
v -1.086805 1.455799 -0.363044
v 0.913195 0.705799 0.636956
v 0.913195 0.455799 0.636956
v 0.913195 0.705799 0.386956
v -0.836806 0.705799 0.886956
v -0.836806 0.455799 0.886956
v -0.586806 0.705799 0.886956
v 0.163195 1.705799 -1.113044
v 0.413195 1.705799 -1.113044
v 0.163195 1.455799 -1.113044
vn 0.0000 0.0000 -1.0000
vn -0.0000 0.0000 1.0000
vn 1.0000 0.0000 0.0000
vn -1.0000 -0.0000 0.0000
vn 0.0000 -1.0000 0.0000
usemtl Material
s off
f 61//16 144//16 214//16
f 59//17 145//17 211//17
f 58//18 146//18 209//18
f 64//19 147//19 143//19
f 61//16 134//16 144//16
f 59//17 135//17 145//17
f 58//18 132//18 146//18
f 64//19 139//19 147//19
f 78//19 221//19 163//19
f 78//19 222//19 221//19
f 72//19 155//19 168//19
f 77//18 224//18 162//18
f 77//18 225//18 224//18
f 68//17 151//17 173//17
f 67//16 150//16 176//16
f 76//19 233//19 159//19
f 76//19 234//19 233//19
f 78//19 163//19 179//19
f 69//18 236//18 193//18
f 69//18 237//18 236//18
f 77//18 162//18 182//18
f 71//17 239//17 195//17
f 71//17 240//17 239//17
f 74//16 242//16 198//16
f 74//16 243//16 242//16
f 131//16 245//16 244//16
f 131//16 246//16 245//16
f 107//16 217//16 247//16
f 129//16 248//16 186//16
f 129//16 249//16 248//16
f 130//16 187//16 250//16
f 88//16 251//16 141//16
f 88//16 252//16 251//16
f 129//16 186//16 253//16
f 128//17 254//17 241//17
f 128//17 255//17 254//17
f 108//17 218//17 256//17
f 126//17 257//17 183//17
f 126//17 258//17 257//17
f 127//17 184//17 259//17
f 85//17 260//17 138//17
f 85//17 261//17 260//17
f 126//17 183//17 262//17
f 125//18 263//18 238//18
f 125//18 264//18 263//18
f 109//18 219//18 265//18
f 123//18 266//18 180//18
f 83//18 268//18 136//18
f 83//18 269//18 268//18
f 123//18 180//18 270//18
f 110//19 220//19 273//19
f 121//19 274//19 177//19
f 121//19 275//19 274//19
f 122//19 178//19 276//19
f 106//19 277//19 216//19
f 106//19 278//19 277//19
f 121//19 177//19 279//19
f 120//16 280//16 232//16
f 120//16 281//16 280//16
f 97//16 207//16 282//16
f 118//16 283//16 174//16
f 118//16 284//16 283//16
f 119//16 175//16 285//16
f 107//16 286//16 217//16
f 107//16 287//16 286//16
f 118//16 174//16 288//16
f 117//17 289//17 229//17
f 117//17 290//17 289//17
f 98//17 208//17 291//17
f 115//17 292//17 171//17
f 115//17 293//17 292//17
f 116//17 172//17 294//17
f 108//17 295//17 218//17
f 108//17 296//17 295//17
f 115//17 171//17 297//17
f 114//18 298//18 226//18
f 114//18 299//18 298//18
f 95//18 205//18 300//18
f 113//18 301//18 169//18
f 113//18 302//18 301//18
f 109//18 304//18 219//18
f 112//19 306//19 223//19
f 112//19 307//19 306//19
f 102//19 212//19 308//19
f 111//19 309//19 166//19
f 111//19 310//19 309//19
f 110//19 312//19 220//19
f 110//19 313//19 312//19
f 111//19 166//19 314//19
f 94//19 316//19 204//19
f 94//19 317//19 316//19
f 86//19 196//19 318//19
f 93//18 319//18 203//18
f 93//18 320//18 319//18
f 79//18 189//18 321//18
f 92//17 322//17 202//17
f 92//17 323//17 322//17
f 82//17 192//17 324//17
f 91//16 325//16 201//16
f 91//16 326//16 325//16
f 81//16 191//16 327//16
f 90//19 328//19 200//19
f 90//19 329//19 328//19
f 94//19 204//19 330//19
f 99//18 331//18 152//18
f 99//18 332//18 331//18
f 93//18 203//18 333//18
f 101//17 334//17 154//17
f 101//17 335//17 334//17
f 92//17 202//17 336//17
f 104//16 337//16 157//16
f 104//16 338//16 337//16
f 91//16 201//16 339//16
f 339//16 187//16 130//16
f 339//16 201//16 187//16
f 337//16 339//16 130//16
f 337//16 338//16 339//16
f 338//16 91//16 339//16
f 157//16 243//16 74//16
f 157//16 337//16 243//16
f 337//16 130//16 243//16
f 336//17 184//17 127//17
f 336//17 202//17 184//17
f 334//17 336//17 127//17
f 334//17 335//17 336//17
f 335//17 92//17 336//17
f 154//17 240//17 71//17
f 154//17 334//17 240//17
f 334//17 127//17 240//17
f 333//18 181//18 124//18
f 333//18 203//18 181//18
f 203//18 77//18 181//18
f 331//18 333//18 124//18
f 331//18 332//18 333//18
f 332//18 93//18 333//18
f 152//18 237//18 69//18
f 152//18 331//18 237//18
f 331//18 124//18 237//18
f 330//19 178//19 122//19
f 330//19 204//19 178//19
f 204//19 78//19 178//19
f 328//19 330//19 122//19
f 328//19 329//19 330//19
f 329//19 94//19 330//19
f 200//19 234//19 76//19
f 200//19 328//19 234//19
f 328//19 122//19 234//19
f 327//16 175//16 119//16
f 327//16 191//16 175//16
f 191//16 67//16 175//16
f 325//16 327//16 119//16
f 325//16 326//16 327//16
f 326//16 81//16 327//16
f 201//16 325//16 231//16
f 325//16 119//16 231//16
f 324//17 172//17 116//17
f 324//17 192//17 172//17
f 192//17 68//17 172//17
f 322//17 324//17 116//17
f 322//17 323//17 324//17
f 323//17 82//17 324//17
f 202//17 322//17 228//17
f 322//17 116//17 228//17
f 319//18 320//18 321//18
f 320//18 79//18 321//18
f 203//18 225//18 77//18
f 318//19 196//19 167//19
f 196//19 72//19 167//19
f 316//19 317//19 318//19
f 317//19 86//19 318//19
f 204//19 222//19 78//19
f 148//20 164//20 315//20
f 65//20 165//20 164//20
f 314//19 153//19 100//19
f 314//19 166//19 153//19
f 166//19 70//19 153//19
f 312//19 314//19 100//19
f 312//19 313//19 314//19
f 313//19 111//19 314//19
f 220//19 210//19 59//19
f 220//19 312//19 210//19
f 312//19 100//19 210//19
f 311//19 168//19 112//19
f 167//19 72//19 168//19
f 309//19 311//19 112//19
f 309//19 310//19 311//19
f 166//19 223//19 70//19
f 166//19 309//19 223//19
f 309//19 112//19 223//19
f 308//19 137//19 84//19
f 308//19 212//19 137//19
f 212//19 60//19 137//19
f 306//19 308//19 84//19
f 306//19 307//19 308//19
f 307//19 102//19 308//19
f 223//19 194//19 70//19
f 223//19 306//19 194//19
f 306//19 84//19 194//19
f 305//18 191//18 81//18
f 305//18 169//18 191//18
f 169//18 67//18 191//18
f 304//18 305//18 81//18
f 219//18 134//18 61//18
f 219//18 304//18 134//18
f 304//18 81//18 134//18
f 303//18 170//18 114//18
f 301//18 303//18 114//18
f 301//18 302//18 303//18
f 169//18 226//18 67//18
f 169//18 301//18 226//18
f 301//18 114//18 226//18
f 300//18 207//18 97//18
f 300//18 205//18 207//18
f 205//18 57//18 207//18
f 298//18 300//18 97//18
f 298//18 299//18 300//18
f 299//18 95//18 300//18
f 226//18 150//18 67//18
f 226//18 298//18 150//18
f 298//18 97//18 150//18
f 297//17 193//17 83//17
f 297//17 171//17 193//17
f 171//17 69//17 193//17
f 295//17 297//17 83//17
f 295//17 296//17 297//17
f 296//17 115//17 297//17
f 218//17 136//17 62//17
f 218//17 295//17 136//17
f 295//17 83//17 136//17
f 294//17 173//17 117//17
f 294//17 172//17 173//17
f 172//17 68//17 173//17
f 292//17 294//17 117//17
f 292//17 293//17 294//17
f 293//17 116//17 294//17
f 171//17 229//17 69//17
f 171//17 292//17 229//17
f 292//17 117//17 229//17
f 291//17 209//17 99//17
f 291//17 208//17 209//17
f 208//17 58//17 209//17
f 289//17 291//17 99//17
f 289//17 290//17 291//17
f 290//17 98//17 291//17
f 229//17 152//17 69//17
f 229//17 289//17 152//17
f 289//17 99//17 152//17
f 288//16 190//16 80//16
f 288//16 174//16 190//16
f 174//16 66//16 190//16
f 286//16 288//16 80//16
f 286//16 287//16 288//16
f 287//16 118//16 288//16
f 217//16 133//16 60//16
f 217//16 286//16 133//16
f 286//16 80//16 133//16
f 285//16 176//16 120//16
f 285//16 175//16 176//16
f 175//16 67//16 176//16
f 283//16 285//16 120//16
f 283//16 284//16 285//16
f 284//16 119//16 285//16
f 174//16 232//16 66//16
f 174//16 283//16 232//16
f 283//16 120//16 232//16
f 282//16 206//16 96//16
f 282//16 207//16 206//16
f 207//16 57//16 206//16
f 280//16 282//16 96//16
f 280//16 281//16 282//16
f 281//16 97//16 282//16
f 232//16 149//16 66//16
f 232//16 280//16 149//16
f 280//16 96//16 149//16
f 279//19 195//19 85//19
f 279//19 177//19 195//19
f 177//19 71//19 195//19
f 277//19 279//19 85//19
f 277//19 278//19 279//19
f 278//19 121//19 279//19
f 216//19 138//19 63//19
f 216//19 277//19 138//19
f 277//19 85//19 138//19
f 276//19 178//19 179//19
f 178//19 78//19 179//19
f 274//19 275//19 276//19
f 275//19 122//19 276//19
f 177//19 235//19 71//19
f 273//19 211//19 101//19
f 273//19 220//19 211//19
f 220//19 59//19 211//19
f 271//19 273//19 101//19
f 271//19 272//19 273//19
f 272//19 110//19 273//19
f 235//19 154//19 71//19
f 235//19 271//19 154//19
f 271//19 101//19 154//19
f 270//18 197//18 87//18
f 270//18 180//18 197//18
f 180//18 73//18 197//18
f 268//18 270//18 87//18
f 268//18 269//18 270//18
f 269//18 123//18 270//18
f 136//18 140//18 62//18
f 136//18 268//18 140//18
f 268//18 87//18 140//18
f 267//18 182//18 125//18
f 267//18 181//18 182//18
f 181//18 77//18 182//18
f 266//18 267//18 125//18
f 180//18 238//18 73//18
f 180//18 266//18 238//18
f 266//18 125//18 238//18
f 265//18 213//18 103//18
f 265//18 219//18 213//18
f 219//18 61//18 213//18
f 263//18 265//18 103//18
f 263//18 264//18 265//18
f 264//18 109//18 265//18
f 238//18 156//18 73//18
f 238//18 263//18 156//18
f 263//18 103//18 156//18
f 262//17 199//17 89//17
f 262//17 183//17 199//17
f 183//17 75//17 199//17
f 260//17 262//17 89//17
f 260//17 261//17 262//17
f 261//17 126//17 262//17
f 138//17 142//17 63//17
f 138//17 260//17 142//17
f 260//17 89//17 142//17
f 259//17 185//17 128//17
f 257//17 259//17 128//17
f 257//17 258//17 259//17
f 258//17 127//17 259//17
f 183//17 241//17 75//17
f 183//17 257//17 241//17
f 257//17 128//17 241//17
f 256//17 215//17 105//17
f 256//17 218//17 215//17
f 218//17 62//17 215//17
f 254//17 256//17 105//17
f 254//17 255//17 256//17
f 255//17 108//17 256//17
f 241//17 158//17 75//17
f 241//17 254//17 158//17
f 254//17 105//17 158//17
f 253//16 196//16 86//16
f 253//16 186//16 196//16
f 186//16 72//16 196//16
f 251//16 253//16 86//16
f 251//16 252//16 253//16
f 252//16 129//16 253//16
f 141//16 139//16 64//16
f 141//16 251//16 139//16
f 251//16 86//16 139//16
f 250//16 188//16 131//16
f 248//16 250//16 131//16
f 248//16 249//16 250//16
f 249//16 130//16 250//16
f 186//16 244//16 72//16
f 186//16 248//16 244//16
f 248//16 131//16 244//16
f 247//16 212//16 102//16
f 247//16 217//16 212//16
f 217//16 60//16 212//16
f 245//16 247//16 102//16
f 245//16 246//16 247//16
f 246//16 107//16 247//16
f 244//16 155//16 72//16
f 244//16 245//16 155//16
f 245//16 102//16 155//16
f 188//16 246//16 131//16
f 188//16 160//16 246//16
f 160//16 107//16 246//16
f 242//16 249//16 129//16
f 242//16 243//16 249//16
f 243//16 130//16 249//16
f 198//16 252//16 88//16
f 198//16 242//16 252//16
f 242//16 129//16 252//16
f 185//17 255//17 128//17
f 185//17 161//17 255//17
f 161//17 108//17 255//17
f 239//17 258//17 126//17
f 239//17 240//17 258//17
f 240//17 127//17 258//17
f 195//17 261//17 85//17
f 195//17 239//17 261//17
f 239//17 126//17 261//17
f 182//18 264//18 125//18
f 182//18 162//18 264//18
f 193//18 269//18 83//18
f 193//18 236//18 269//18
f 163//19 110//19 272//19
f 233//19 275//19 121//19
f 233//19 234//19 275//19
f 234//19 122//19 275//19
f 159//19 278//19 106//19
f 159//19 233//19 278//19
f 233//19 121//19 278//19
f 176//16 281//16 120//16
f 176//16 150//16 281//16
f 150//16 97//16 281//16
f 230//16 284//16 118//16
f 231//16 119//16 284//16
f 160//16 287//16 107//16
f 160//16 230//16 287//16
f 230//16 118//16 287//16
f 173//17 290//17 117//17
f 173//17 151//17 290//17
f 151//17 98//17 290//17
f 227//17 293//17 115//17
f 228//17 116//17 293//17
f 161//17 296//17 108//17
f 161//17 227//17 296//17
f 227//17 115//17 296//17
f 170//18 299//18 114//18
f 170//18 148//18 299//18
f 148//18 95//18 299//18
f 224//18 302//18 113//18
f 224//18 225//18 302//18
f 168//19 307//19 112//19
f 168//19 155//19 307//19
f 155//19 102//19 307//19
f 221//19 310//19 111//19
f 221//19 222//19 310//19
f 163//19 313//19 110//19
f 163//19 221//19 313//19
f 221//19 111//19 313//19
f 147//19 317//19 94//19
f 147//19 139//19 317//19
f 139//19 86//19 317//19
f 146//18 320//18 93//18
f 146//18 132//18 320//18
f 132//18 79//18 320//18
f 145//17 323//17 92//17
f 145//17 135//17 323//17
f 135//17 82//17 323//17
f 144//16 326//16 91//16
f 144//16 134//16 326//16
f 134//16 81//16 326//16
f 143//19 329//19 90//19
f 143//19 147//19 329//19
f 147//19 94//19 329//19
f 209//18 332//18 99//18
f 209//18 146//18 332//18
f 146//18 93//18 332//18
f 211//17 335//17 101//17
f 211//17 145//17 335//17
f 145//17 92//17 335//17
f 214//16 338//16 104//16
f 214//16 144//16 338//16
f 144//16 91//16 338//16
f 148//20 65//20 164//20
f 65//20 189//20 165//20
